<?xml version="1.0" encoding="utf-8"?>
<!-- Generator: Adobe Illustrator 24.1.2, SVG Export Plug-In . SVG Version: 6.00 Build 0)  -->
<svg version="1.1" id="Camada_1" xmlns="http://www.w3.org/2000/svg" xmlns:xlink="http://www.w3.org/1999/xlink" x="0px" y="0px"
	 viewBox="0 0 1080 1080" style="enable-background:new 0 0 1080 1080;" xml:space="preserve">
<style type="text/css">
	.st0{fill:#EAEAEA;}
	.st1{fill:#7F7F7F;}
	.st2{fill:#EA2C00;}
	.st3{fill:#5670AB;}
	.st4{fill:#FF5100;}
</style>
<g>
	<g>
		<path class="st0" d="M226.27,810.99l38.09-110.26l-14.91-1.42v-19.17h54.18l48.27,136.52h0.24l13.49,0.71v20.11h-61.04v-19.16
			l8.99-0.71c2.68-0.31,4.5-0.95,5.44-1.89c0.95-0.95,1.02-2.68,0.24-5.21l-4.97-14.67h-55.36l-7.1,20.82l14.2,0.71v20.11h-54.65
			v-19.16l7.81-0.71C222.48,817.3,224.85,815.1,226.27,810.99z M286.6,706.65l-22,67.43h44.01l-21.29-67.43H286.6z"/>
		<path class="st0" d="M374.38,837.49v-19.16l7.81-0.71c4.57-0.47,6.86-2.68,6.86-6.63V700.97l-13.49-0.71v-20.11h64.59
			c18.3,0,32.33,3.39,42.12,10.17c9.78,6.78,14.67,17.9,14.67,33.36c0,10.73-2.8,19.56-8.4,26.5c-5.6,6.94-12.27,11.99-19.99,15.14
			c5.68,2.05,10.17,6.86,13.49,14.43l17.04,37.15l13.49,0.47v20.11h-58.44v-19.16l6.86-0.71c3.63-0.47,5.44-1.89,5.44-4.26
			c0-0.95-0.32-2.05-0.95-3.31l-11.12-23.66c-1.74-3.94-3.67-6.74-5.8-8.4c-2.13-1.66-5.17-2.48-9.11-2.48h-21.53v41.17l15.38,0.71
			v20.11H374.38z M417.91,753.02h20.58c19.4,0,29.1-8.67,29.1-26.03c0-9.94-2.56-16.4-7.69-19.4c-5.13-2.99-13.37-4.5-24.73-4.5
			h-17.27V753.02z"/>
		<path class="st0" d="M559.4,810.99V703.58h-18.45c-3.63,0-5.44,2.45-5.44,7.33v11.12l-24.13-1.66v-40.22h123.74v40.22l-24.13,1.66
			v-11.12c0-2.68-0.4-4.57-1.18-5.68c-0.79-1.1-2.68-1.66-5.68-1.66h-16.09v113.09l18.69,0.71v20.11H540v-19.16l12.54-0.71
			C557.11,817.14,559.4,814.94,559.4,810.99z"/>
		<path class="st0" d="M648.84,841.04c-5.52,0-9.78-1.54-12.78-4.61c-3-3.08-4.5-7.1-4.5-12.07c0-4.97,1.54-9.07,4.61-12.3
			c3.08-3.23,7.25-4.85,12.54-4.85c5.28,0,9.5,1.54,12.66,4.61c3.15,3.08,4.73,7.1,4.73,12.07c0,4.97-1.5,9.07-4.5,12.3
			C658.61,839.42,654.35,841.04,648.84,841.04z"/>
		<path class="st0" d="M697.81,809.81V700.97l-13.49-0.71v-20.11h57.26v19.17l-7.81,0.71c-4.58,0.47-6.86,3-6.86,7.57v109.07
			l13.49,0.71v20.11h-57.26v-19.16l7.81-0.71c2.37-0.31,4.1-0.98,5.21-2.01C697.26,814.58,697.81,812.65,697.81,809.81z"/>
		<path class="st0" d="M868.63,837.49H756.25v-19.16l7.81-0.71c4.57-0.47,6.86-2.68,6.86-6.63V700.97l-13.49-0.71v-20.11H865.8
			v39.28l-24.13,1.66v-9.47c0-2.68-0.39-4.57-1.18-5.68c-0.79-1.1-2.68-1.66-5.68-1.66h-35.02v40.46h54.66v24.13h-54.66v44.24h38.09
			c2.84,0,4.65-0.59,5.44-1.77c0.79-1.18,1.18-3.11,1.18-5.8v-11.83l24.13,1.66V837.49z"/>
	</g>
</g>
<g>
	<g>
		<g>
			<g>
				<path class="st0" d="M489.73,271.59c-27.4-24.94-75.11-34.01-115.15,5.05l-135.16,134.7v95.85l162.93-202.34
					c18.61-21.95,47.22-16.25,60.73-3.96c9.19,8.33,11.73,19.56,7.9,31.17c-0.64,1.93-1.16,3.67-1.61,5.35l26.76,15.33
					c0.03-0.08,0.09-0.14,0.14-0.21C516.25,327.69,516.73,296.16,489.73,271.59z"/>
				<path class="st1" d="M484.35,260.46c-27.42-24.94-75.09-34.01-115.18,5.06L235.11,399.14l6.85,9.68l132.61-132.17
					c40.04-39.07,87.76-29.99,115.15-5.05c5.2,4.74,9.36,9.74,12.58,14.9C499.09,277.39,493.24,268.54,484.35,260.46z"/>
			</g>
			<g>
				<path class="st0" d="M590.3,271.59c27.39-24.94,75.08-34.01,115.14,5.05l135.16,134.7v95.85L677.67,304.85
					c-18.63-21.95-47.24-16.25-60.74-3.96c-9.17,8.33-11.71,19.56-7.9,31.17c0.65,1.93,1.19,3.67,1.63,5.35l-26.74,15.33
					c-0.06-0.08-0.13-0.14-0.16-0.21C563.75,327.69,563.27,296.16,590.3,271.59z"/>
				<path class="st1" d="M595.67,260.46c27.4-24.94,75.09-34.01,115.15,5.06l134.08,133.62l-6.84,9.68L705.44,276.65
					c-40.07-39.07-87.76-29.99-115.14-5.05c-5.21,4.74-9.39,9.74-12.6,14.9C580.91,277.39,586.77,268.54,595.67,260.46z"/>
			</g>
		</g>
		<g>
			<polygon class="st2" points="759.47,579.47 831.54,507.41 831.54,463.21 715.27,579.47 			"/>
			<path class="st0" d="M824.08,384.07H255.94c-24.53,0-44.57,20.04-44.57,44.56v144.82c0,24.52,20.04,44.56,44.57,44.56h200.52
				c49.63-6.54,48.01-101.42,75.91-120.38c2.11-1.42,12.53-2.07,16.01,0.52c27.2,20.04,26,113.38,75.2,119.86h200.51
				c24.51,0,44.56-20.05,44.56-44.56V428.63C868.63,404.11,848.59,384.07,824.08,384.07z"/>
			<path class="st3" d="M469.48,540.49c0,21.44-17.54,38.99-38.99,38.99H287.45c-21.42,0-38.98-17.55-38.98-38.99v-78.9
				c0-21.44,17.56-38.99,38.98-38.99h143.03c21.45,0,38.99,17.55,38.99,38.99V540.49z"/>
			<path class="st4" d="M831.54,540.49c0,21.44-17.53,38.99-38.99,38.99H649.51c-21.44,0-38.99-17.55-38.99-38.99v-78.9
				c0-21.44,17.56-38.99,38.99-38.99h143.03c21.46,0,38.99,17.55,38.99,38.99V540.49z"/>
			<path class="st1" d="M246.91,397.07h586.19c11.96,0,22.85,4.66,31.06,12.2c-7.25-14.87-22.5-25.2-40.07-25.2H255.94
				c-17.57,0-32.83,10.33-40.07,25.2C224.07,401.73,234.97,397.07,246.91,397.07z"/>
		</g>
	</g>
</g>
</svg>
